<svg id="Layer_1" data-name="Layer 1" xmlns="http://www.w3.org/2000/svg" viewBox="0 0 1080 1080"><defs><style>.cls-1,.cls-2,.cls-3{isolation:isolate;}.cls-2,.cls-3{font-size:114.5px;font-family:Montserrat-ExtraBold, Montserrat;font-weight:800;}.cls-2,.cls-3,.cls-8{fill:#0d6efd;}.cls-3{letter-spacing:-0.01em;}.cls-4{opacity:0.36;}.cls-5,.cls-6,.cls-7,.cls-9{fill:none;stroke:#0d6efd;stroke-miterlimit:10;}.cls-5,.cls-6,.cls-7{stroke-width:2px;}.cls-6{stroke-dasharray:11.89 11.89;}.cls-7{stroke-dasharray:12.15 12.15;}</style></defs><g class="cls-1"><text class="cls-2" transform="matrix(1, -0.07, 0.07, 1, 240.03, 560.42)">GRA</text><text class="cls-3" transform="matrix(1, -0.07, 0.07, 1, 504.96, 541.11)">P</text><text class="cls-2" transform="matrix(1, -0.07, 0.07, 1, 588.67, 535.01)">HIC</text><text class="cls-2" transform="matrix(1, -0.07, 0.07, 1, 248.23, 672.92)">DESIGNER</text></g><g class="cls-4"><polyline class="cls-5" points="927.96 670.85 928.4 676.83 922.42 677.27"/><line class="cls-6" x1="910.56" y1="678.14" x2="205.12" y2="729.54"/><polyline class="cls-5" points="199.19 729.98 193.2 730.41 192.77 724.43"/><line class="cls-7" x1="191.88" y1="712.31" x2="172.9" y2="451.8"/><polyline class="cls-5" points="172.46 445.74 172.02 439.75 178.01 439.32"/><line class="cls-6" x1="189.87" y1="438.46" x2="895.3" y2="387.04"/><polyline class="cls-5" points="901.23 386.61 907.21 386.18 907.65 392.16"/><line class="cls-7" x1="908.53" y1="404.28" x2="927.52" y2="664.79"/></g><rect class="cls-8" x="162.06" y="429.79" width="19.93" height="19.93" transform="translate(-31.51 13.67) rotate(-4.17)"/><rect class="cls-8" x="542.62" y="402.05" width="19.93" height="19.93" transform="translate(-28.49 41.26) rotate(-4.17)"/><rect class="cls-8" x="563.81" y="692.7" width="19.93" height="19.93" transform="translate(-49.56 43.57) rotate(-4.17)"/><rect class="cls-8" x="897.25" y="376.21" width="19.93" height="19.93" transform="translate(-25.67 66.97) rotate(-4.17)"/><rect class="cls-8" x="918.44" y="666.87" width="19.93" height="19.93" transform="translate(-46.74 69.28) rotate(-4.17)"/><rect class="cls-8" x="183.25" y="720.45" width="19.93" height="19.93" transform="translate(-52.58 15.98) rotate(-4.17)"/><polygon class="cls-8" points="936.8 687.65 949.97 764.5 968.8 733.86 1003.96 730.48 936.8 687.65"/><path class="cls-8" d="M323,378.85l-44-56.78a.43.43,0,0,0-.74.35L285,374.81a.43.43,0,0,0,.27.34,2.91,2.91,0,0,1,1.35,4.33.94.94,0,0,1-.09.12,2.88,2.88,0,0,1-5-1.47,2.81,2.81,0,0,1,1.15-2.64.44.44,0,0,0,.19-.41l-6.77-52.38a.43.43,0,0,0-.81-.15L246.83,387.4a.42.42,0,0,0,0,.49l22.79,35.59,40.38-5.21,13-38.94A.45.45,0,0,0,323,378.85Z"/><path class="cls-8" d="M311.31,437.62l-37.94,4.9a1.56,1.56,0,0,1-1.75-1.35l-2-15.79a.31.31,0,0,1,.27-.35l40.42-5.22a.31.31,0,0,1,.35.27l2,15.79A1.57,1.57,0,0,1,311.31,437.62Z"/><path class="cls-9" d="M212.83,261.15a56.09,56.09,0,0,0,62.82,48.45"/><path class="cls-9" d="M338.57,358.79a56.12,56.12,0,0,0-62.83-48.45"/><rect class="cls-8" x="208.81" y="257.78" width="8.23" height="8.23" transform="translate(-31.79 29.43) rotate(-7.36)"/><rect class="cls-8" x="333.52" y="353.29" width="8.23" height="8.23" transform="translate(-43 46.19) rotate(-7.36)"/><line class="cls-9" x1="202.96" y1="319.37" x2="349.84" y2="300.4"/><rect class="cls-8" x="271.27" y="306.65" width="8.23" height="8.23" transform="translate(-37.54 37.84) rotate(-7.36)"/><rect class="cls-8" x="198.76" y="316.02" width="8.23" height="8.23" transform="translate(-39.34 28.62) rotate(-7.36)"/><rect class="cls-8" x="344.15" y="297.24" width="8.23" height="8.23" transform="translate(-35.73 47.09) rotate(-7.36)"/></svg>