<svg id="Layer_1" data-name="Layer 1" xmlns="http://www.w3.org/2000/svg" viewBox="0 0 859.86 411.09"><defs><style>.cls-1{font-size:114.5px;font-family:Montserrat-Black, Montserrat;font-weight:800;}.cls-1,.cls-8{fill:#0d6efd;}.cls-2{letter-spacing:-0.01em;}.cls-3{letter-spacing:0em;}.cls-4{opacity:0.36;}.cls-5,.cls-6,.cls-7{fill:none;stroke:#0d6efd;stroke-miterlimit:10;stroke-width:2px;}.cls-6{stroke-dasharray:11.89 11.89;}.cls-7{stroke-dasharray:12.15 12.15;}</style></defs><text class="cls-1" transform="translate(86.72 227.26) rotate(-7.79)">GRA<tspan class="cls-2" x="265.63" y="0">P</tspan><tspan class="cls-3" x="349.56" y="0">HIC</tspan><tspan x="0" y="112.8">DESIGNER</tspan></text><g class="cls-4"><polyline class="cls-5" points="780.25 294.02 781.06 299.96 775.12 300.77"/><line class="cls-6" x1="763.34" y1="302.39" x2="62.56" y2="398.25"/><polyline class="cls-5" points="56.67 399.06 50.72 399.87 49.91 393.93"/><line class="cls-7" x1="48.26" y1="381.89" x2="12.86" y2="123.09"/><polyline class="cls-5" points="12.04 117.08 11.22 111.13 17.17 110.32"/><line class="cls-6" x1="28.95" y1="108.71" x2="729.73" y2="12.84"/><polyline class="cls-5" points="735.62 12.04 741.56 11.22 742.38 17.17"/><line class="cls-7" x1="744.02" y1="29.2" x2="779.43" y2="288"/></g><rect class="cls-8" x="155.26" y="456.05" width="19.93" height="19.93" transform="translate(-215.64 -328.19) rotate(-7.79)"/><rect class="cls-8" x="533.31" y="404.33" width="19.93" height="19.93" transform="translate(-205.14 -277.43) rotate(-7.79)"/><rect class="cls-8" x="572.81" y="693.07" width="19.93" height="19.93" transform="translate(-243.91 -269.41) rotate(-7.79)"/><rect class="cls-8" x="885.6" y="356.14" width="19.93" height="19.93" transform="translate(-195.36 -230.12) rotate(-7.79)"/><rect class="cls-8" x="925.1" y="644.88" width="19.93" height="19.93" transform="translate(-234.13 -222.11) rotate(-7.79)"/><rect class="cls-8" x="194.76" y="744.79" width="19.93" height="19.93" transform="translate(-254.41 -320.17) rotate(-7.79)"/><polygon class="cls-8" points="790.13 310.23 808.13 386.08 824.99 354.32 859.86 348.73 790.13 310.23"/></svg>