<svg id="Layer_1" data-name="Layer 1" xmlns="http://www.w3.org/2000/svg" viewBox="0 0 1080 1080"><defs><style>.cls-1{font-size:114.5px;font-family:Montserrat-Black, Montserrat;font-weight:800;}.cls-1,.cls-8{fill:#0d6efd;}.cls-2{letter-spacing:-0.01em;}.cls-3{letter-spacing:0em;}.cls-4{opacity:0.36;}.cls-5,.cls-6,.cls-7{fill:none;stroke:#0d6efd;stroke-miterlimit:10;stroke-width:2px;}.cls-6{stroke-dasharray:11.89 11.89;}.cls-7{stroke-dasharray:12.15 12.15;}</style></defs><text class="cls-1" transform="translate(240.72 582.14) rotate(-7.79)">GRA<tspan class="cls-2" x="265.63" y="0">P</tspan><tspan class="cls-3" x="349.56" y="0">HIC</tspan><tspan x="0" y="112.8">DESIGNER</tspan></text><g class="cls-4"><polyline class="cls-5" points="934.25 648.9 935.06 654.84 929.12 655.66"/><line class="cls-6" x1="917.34" y1="657.27" x2="216.56" y2="753.13"/><polyline class="cls-5" points="210.67 753.94 204.72 754.75 203.91 748.81"/><line class="cls-7" x1="202.26" y1="736.77" x2="166.86" y2="477.98"/><polyline class="cls-5" points="166.04 471.96 165.22 466.01 171.17 465.2"/><line class="cls-6" x1="182.95" y1="463.59" x2="883.73" y2="367.72"/><polyline class="cls-5" points="889.62 366.92 895.56 366.11 896.38 372.05"/><line class="cls-7" x1="898.02" y1="384.09" x2="933.43" y2="642.88"/></g><rect class="cls-8" x="155.26" y="456.05" width="19.93" height="19.93" transform="translate(-61.64 26.69) rotate(-7.79)"/><rect class="cls-8" x="533.31" y="404.33" width="19.93" height="19.93" transform="translate(-51.14 77.46) rotate(-7.79)"/><rect class="cls-8" x="572.81" y="693.07" width="19.93" height="19.93" transform="translate(-89.91 85.47) rotate(-7.79)"/><rect class="cls-8" x="885.6" y="356.14" width="19.93" height="19.93" transform="translate(-41.36 124.76) rotate(-7.79)"/><rect class="cls-8" x="925.1" y="644.88" width="19.93" height="19.93" transform="translate(-80.13 132.78) rotate(-7.79)"/><rect class="cls-8" x="194.76" y="744.79" width="19.93" height="19.93" transform="translate(-100.41 34.71) rotate(-7.79)"/><polygon class="cls-8" points="944.13 665.11 962.13 740.97 978.99 709.2 1013.86 703.61 944.13 665.11"/></svg>