<svg id="Layer_1" data-name="Layer 1" xmlns="http://www.w3.org/2000/svg" viewBox="0 0 1080 1080"><defs><style>.cls-1{opacity:0.36;}.cls-13,.cls-14,.cls-15,.cls-16,.cls-17,.cls-18,.cls-2,.cls-3,.cls-4{fill:none;stroke:#0d6efd;stroke-miterlimit:10;stroke-width:2px;}.cls-3{stroke-dasharray:11.89 11.89;}.cls-4{stroke-dasharray:12.15 12.15;}.cls-5,.cls-6{fill:#0d6efd;}.cls-6{font-size:117.48px;font-family:Montserrat-Black, Montserrat;font-weight:800;}.cls-7{letter-spacing:-0.01em;}.cls-8{letter-spacing:0em;}.cls-9{letter-spacing:-0.01em;}.cls-10{letter-spacing:-0.01em;}.cls-11{letter-spacing:0em;}.cls-12{opacity:0.5;}.cls-13{stroke-dasharray:12.47 12.47;}.cls-14{stroke-dasharray:12.46 12.46;}.cls-15{stroke-dasharray:12.23 12.23;}.cls-16{stroke-dasharray:12.52 12.52;}.cls-17{stroke-dasharray:12.2 12.2;}.cls-18{stroke-dasharray:12.66 12.66;}</style></defs><g class="cls-1"><polyline class="cls-2" points="911.08 711.03 910.79 717.02 904.8 716.74"/><line class="cls-3" x1="892.92" y1="716.16" x2="186.44" y2="682.08"/><polyline class="cls-2" points="180.5 681.8 174.5 681.5 174.79 675.51"/><line class="cls-4" x1="175.37" y1="663.38" x2="187.96" y2="402.48"/><polyline class="cls-2" points="188.26 396.41 188.54 390.41 194.54 390.71"/><line class="cls-3" x1="206.41" y1="391.28" x2="912.9" y2="425.35"/><polyline class="cls-2" points="918.84 425.64 924.83 425.94 924.54 431.93"/><line class="cls-4" x1="923.95" y1="444.06" x2="911.37" y2="704.96"/></g><rect class="cls-5" x="178.58" y="380.45" width="19.93" height="19.93" transform="translate(-210.5 559.93) rotate(-87.24)"/><rect class="cls-5" x="559.71" y="398.83" width="19.93" height="19.93" transform="translate(133.91 958.12) rotate(-87.24)"/><rect class="cls-5" x="545.67" y="689.92" width="19.93" height="19.93" transform="translate(-170.2 1221.16) rotate(-87.24)"/><rect class="cls-5" x="914.86" y="415.96" width="19.93" height="19.93" transform="translate(454.85 1329.16) rotate(-87.24)"/><rect class="cls-5" x="900.83" y="707.05" width="19.93" height="19.93" transform="translate(150.73 1592.21) rotate(-87.24)"/><rect class="cls-5" x="164.54" y="671.54" width="19.93" height="19.93" transform="matrix(0.05, -1, 1, 0.05, -514.61, 822.98)"/><polygon class="cls-5" points="917.82 728.77 921.63 806.65 944.02 778.5 979.32 779.39 917.82 728.77"/><text class="cls-6" transform="translate(211.85 532.93) rotate(2.38)"><tspan class="cls-7">P</tspan><tspan class="cls-8" x="86.11" y="0">H</tspan><tspan class="cls-9" x="180.57" y="0">OT</tspan><tspan x="354.67" y="0">O</tspan><tspan x="0" y="100">GRA</tspan><tspan class="cls-10" x="272.56" y="100">P</tspan><tspan class="cls-11" x="358.67" y="100">HER</tspan></text><polygon class="cls-5" points="223.94 430.03 338.92 291.57 400.98 385.04 448.66 339.2 532.07 445.77 223.94 430.03"/><circle class="cls-5" cx="405.27" cy="298.88" r="21.86"/><g class="cls-12"><polyline class="cls-2" points="213.57 420.02 207.58 419.71 211.41 415.1"/><line class="cls-13" x1="219.38" y1="405.5" x2="326.95" y2="275.96"/><polyline class="cls-2" points="330.93 271.17 334.77 266.55 338.08 271.55"/><line class="cls-14" x1="344.98" y1="281.93" x2="396.66" y2="359.76"/><polyline class="cls-2" points="400.1 364.95 403.42 369.95 407.75 365.79"/><line class="cls-15" x1="416.56" y1="357.31" x2="447.43" y2="327.64"/><polyline class="cls-2" points="451.83 323.4 456.16 319.24 459.86 323.97"/><line class="cls-16" x1="467.57" y1="333.83" x2="540.87" y2="427.47"/><polyline class="cls-2" points="544.73 432.4 548.43 437.13 542.44 436.82"/><line class="cls-17" x1="530.26" y1="436.2" x2="219.66" y2="420.33"/><circle class="cls-18" cx="408.16" cy="274.64" r="24.18" transform="translate(130.26 680.59) rotate(-89.54)"/></g></svg>