<svg id="Layer_1" data-name="Layer 1" xmlns="http://www.w3.org/2000/svg" viewBox="0 0 1080 1080"><defs><style>.cls-1{opacity:0.58;}.cls-2{fill:#fff;}.cls-3,.cls-4,.cls-5,.cls-6,.cls-7{fill:none;stroke:#0d6efd;stroke-miterlimit:10;}.cls-4{stroke-dasharray:11.93 11.93;}.cls-5{stroke-dasharray:11.95 11.95;}.cls-6{stroke-dasharray:11.93 11.93;}.cls-7{stroke-dasharray:11.95 11.95;}.cls-8,.cls-9{fill:#0d6efd;}.cls-9{font-size:74.39px;font-family:Montserrat-Black, Montserrat;font-weight:800;}.cls-10{letter-spacing:-0.01em;}.cls-11{letter-spacing:-0.01em;}</style></defs><g class="cls-1"><rect class="cls-2" x="280.13" y="194.25" width="519.74" height="691.5" transform="translate(-31.15 1046.94) rotate(-86.59)"/></g><polyline class="cls-3" points="142.33 797.66 141.98 803.65 147.97 804.01"/><line class="cls-4" x1="159.87" y1="804.72" x2="891.97" y2="848.32"/><polyline class="cls-3" points="897.92 848.68 903.91 849.03 904.27 843.04"/><line class="cls-5" x1="904.98" y1="831.12" x2="937.31" y2="288.3"/><polyline class="cls-3" points="937.67 282.33 938.02 276.35 932.03 275.99"/><line class="cls-6" x1="920.13" y1="275.28" x2="188.03" y2="231.68"/><polyline class="cls-3" points="182.08 231.32 176.09 230.97 175.73 236.96"/><line class="cls-7" x1="175.02" y1="248.88" x2="142.69" y2="791.7"/><polygon class="cls-8" points="179.41 778.85 439.71 470.72 577.04 681.38 684.76 579.55 869.68 819.97 179.41 778.85"/><path class="cls-8" d="M654.81,443.88A54.45,54.45,0,1,1,603.7,386.3,54.45,54.45,0,0,1,654.81,443.88Z"/><text class="cls-9" transform="translate(206.03 333.35) rotate(3.65)"><tspan class="cls-10">P</tspan><tspan x="54.53" y="0">H</tspan><tspan class="cls-11" x="114.34" y="0">OT</tspan><tspan x="224.59" y="0">OGRA</tspan><tspan class="cls-10" x="460.26" y="0">P</tspan><tspan x="514.79" y="0">HER</tspan></text></svg>