<svg id="Layer_1" data-name="Layer 1" xmlns="http://www.w3.org/2000/svg" viewBox="0 0 1080 1080"><defs><style>.cls-1{font-size:74.39px;font-family:Montserrat-Black, Montserrat;font-weight:800;}.cls-1,.cls-5{fill:#0d6efd;}.cls-2{letter-spacing:-0.01em;}.cls-3{letter-spacing:0em;}.cls-4{letter-spacing:-0.01em;}.cls-6{opacity:0.5;}.cls-7,.cls-8,.cls-9{fill:none;stroke:#0d6efd;stroke-miterlimit:10;stroke-width:2px;}.cls-8{stroke-dasharray:12.1 12.1;}.cls-9{stroke-dasharray:12.18 12.18;}</style></defs><text class="cls-1" transform="matrix(1, -0.03, 0.03, 1, 248.82, 777.21)"><tspan class="cls-2">V</tspan><tspan class="cls-3" x="57.36" y="0">IDEOGRA</tspan><tspan class="cls-4" x="430.58" y="0">P</tspan><tspan x="485.11" y="0">HER</tspan></text><polygon class="cls-5" points="576.28 497.6 669.77 547.33 580.52 606.73 491.27 666.13 487.04 557 482.8 447.87 576.28 497.6"/><g class="cls-6"><polyline class="cls-7" points="956.35 796.52 956.51 802.51 950.51 802.68"/><line class="cls-8" x1="938.42" y1="803.01" x2="194.49" y2="823.21"/><polyline class="cls-7" points="188.44 823.38 182.45 823.54 182.28 817.54"/><line class="cls-9" x1="181.95" y1="805.37" x2="168.89" y2="324.32"/><polyline class="cls-7" points="168.72 318.23 168.56 312.23 174.56 312.07"/><line class="cls-8" x1="186.65" y1="311.74" x2="930.58" y2="291.53"/><polyline class="cls-7" points="936.63 291.37 942.62 291.2 942.79 297.2"/><line class="cls-9" x1="943.12" y1="309.38" x2="956.18" y2="790.43"/></g></svg>