<svg id="Layer_1" data-name="Layer 1" xmlns="http://www.w3.org/2000/svg" viewBox="0 0 1080 1080"><defs><style>.cls-1{opacity:0.36;}.cls-11,.cls-2,.cls-3,.cls-4{fill:none;stroke:#0d6efd;stroke-miterlimit:10;stroke-width:2px;}.cls-3{stroke-dasharray:11.89 11.89;}.cls-4{stroke-dasharray:12.15 12.15;}.cls-5,.cls-6{fill:#0d6efd;}.cls-6{font-size:117.48px;font-family:Montserrat-Black, Montserrat;font-weight:800;}.cls-7{letter-spacing:-0.01em;}.cls-8{letter-spacing:-0.01em;}.cls-9{letter-spacing:0em;}.cls-10{opacity:0.5;}.cls-11{stroke-dasharray:12;}</style></defs><g class="cls-1"><polyline class="cls-2" points="926.99 668.79 927.42 674.77 921.45 675.21"/><line class="cls-3" x1="909.59" y1="676.08" x2="204.18" y2="727.85"/><polyline class="cls-2" points="198.25 728.29 192.26 728.73 191.82 722.75"/><line class="cls-4" x1="190.93" y1="710.63" x2="171.81" y2="450.13"/><polyline class="cls-2" points="171.37 444.07 170.93 438.08 176.91 437.65"/><line class="cls-3" x1="188.77" y1="436.78" x2="894.18" y2="384.99"/><polyline class="cls-2" points="900.11 384.56 906.09 384.13 906.54 390.11"/><line class="cls-4" x1="907.42" y1="402.23" x2="926.55" y2="662.73"/></g><rect class="cls-5" x="160.97" y="428.12" width="19.93" height="19.93" transform="translate(-31.61 13.69) rotate(-4.2)"/><rect class="cls-5" x="541.51" y="400.19" width="19.93" height="19.93" transform="translate(-28.55 41.47) rotate(-4.2)"/><rect class="cls-5" x="562.85" y="690.82" width="19.93" height="19.93" transform="translate(-49.77 43.82) rotate(-4.2)"/><rect class="cls-5" x="896.13" y="374.15" width="19.93" height="19.93" transform="translate(-25.69 67.37) rotate(-4.2)"/><rect class="cls-5" x="917.47" y="664.8" width="19.93" height="19.93" transform="translate(-46.91 69.71) rotate(-4.2)"/><rect class="cls-5" x="182.3" y="718.77" width="19.93" height="19.93" transform="translate(-52.84 16.03) rotate(-4.2)"/><polygon class="cls-5" points="935.83 685.58 949.05 762.42 967.86 731.77 1003.01 728.38 935.83 685.58"/><text class="cls-6" transform="translate(211.33 576.72) rotate(-4.58)"><tspan class="cls-7">V</tspan><tspan x="90.58" y="0">IDEO</tspan><tspan x="0" y="100">GRA</tspan><tspan class="cls-8" x="272.56" y="100">P</tspan><tspan class="cls-9" x="358.67" y="100">HER</tspan></text><polygon class="cls-5" points="370.75 374.13 416.27 397.22 373.81 426.69 331.35 456.15 328.29 403.59 325.23 351.04 370.75 374.13"/><g class="cls-10"><polygon class="cls-11" points="373.38 368.64 428.59 396.65 377.09 432.38 325.59 468.12 321.88 404.37 318.17 340.63 373.38 368.64"/></g></svg>